<?xml version="1.0" encoding="utf-8"?>
<!-- Generator: Adobe Illustrator 16.0.0, SVG Export Plug-In . SVG Version: 6.00 Build 0)  -->
<!DOCTYPE svg PUBLIC "-//W3C//DTD SVG 1.1//EN" "http://www.w3.org/Graphics/SVG/1.1/DTD/svg11.dtd">
<svg version="1.1" id="Layer_1" xmlns="http://www.w3.org/2000/svg" xmlns:xlink="http://www.w3.org/1999/xlink" x="0px" y="0px"
	 width="640px" height="480px" viewBox="0 0 640 480" enable-background="new 0 0 640 480" xml:space="preserve">
<g>
	<g>
		<g id="XMLID_1_">
			<g>
				<path fill="#FFFFFF" d="M337.207,196.059c-1.499,5.12-4.68,8.685-8.568,8.94c-15.044,0.946-26.809,8.884-26.793,17.882
					c-0.798-18.237,15.282-33.963,36.236-35.285C338.262,190.644,337.939,193.537,337.207,196.059z"/>
			</g>
			<g>
			</g>
		</g>
	</g>
	<g>
		<g id="XMLID_2_">
			<g>
				<path fill="#FFFFFF" d="M330.421,172.321c1.227,3.026,1.81,6.063,1.846,8.897c0.052,5.716-2.249,10.518-6.417,12.207
					c-15.978,6.473-26.207,18.703-23.461,27.775C295.684,203.104,308.035,181.39,330.421,172.321z"/>
			</g>
			<g>
			</g>
		</g>
	</g>
	<g>
		<g id="XMLID_3_">
			<g>
				<path fill="#FFFFFF" d="M340.982,195.231c0.738,7.407-5.834,14.515-15.143,16.144c-12.956,2.263-23.117,6.677-23.691,10.093
					l-0.147-0.035C300.184,211.05,317.63,199.344,340.982,195.231z"/>
			</g>
			<g>
			</g>
		</g>
	</g>
	<g>
		<g id="XMLID_4_">
			<g>
				<path fill="#FFFFFF" d="M344.907,208.07c-1.135,7.525-9.155,12.915-18.432,12.188c-12.839-1.006-23.583,0.754-25.106,3.964
					l-0.131-0.01C302.08,213.473,321.609,206.245,344.907,208.07z"/>
			</g>
			<g>
			</g>
		</g>
	</g>
	
		<text transform="matrix(1 0 0 1 305.3447 218.2231)" stroke="#000000" stroke-miterlimit="10" font-family="'Anna'" font-size="72">s</text>
</g>
</svg>
